<?xml version="1.0" encoding="UTF-8" standalone="no"?>
<!-- Created with Inkscape (http://www.inkscape.org/) -->

<svg
   width="48.01778mm"
   height="24.311417mm"
   viewBox="0 0 48.017779 24.311417"
   version="1.1"
   id="svg5"
   xml:space="preserve"
   inkscape:version="1.2.1 (9c6d41e410, 2022-07-14)"
   sodipodi:docname="HCC Logo.svg"
   xmlns:inkscape="http://www.inkscape.org/namespaces/inkscape"
   xmlns:sodipodi="http://sodipodi.sourceforge.net/DTD/sodipodi-0.dtd"
   xmlns="http://www.w3.org/2000/svg"
   xmlns:svg="http://www.w3.org/2000/svg"><sodipodi:namedview
     id="namedview7"
     pagecolor="#ffffff"
     bordercolor="#000000"
     borderopacity="0.25"
     inkscape:showpageshadow="2"
     inkscape:pageopacity="0.0"
     inkscape:pagecheckerboard="0"
     inkscape:deskcolor="#d1d1d1"
     inkscape:document-units="mm"
     showgrid="false"
     inkscape:zoom="2.1089995"
     inkscape:cx="63.063077"
     inkscape:cy="28.449508"
     inkscape:window-width="1920"
     inkscape:window-height="1017"
     inkscape:window-x="-8"
     inkscape:window-y="32"
     inkscape:window-maximized="1"
     inkscape:current-layer="layer1" /><defs
     id="defs2" /><g
     inkscape:label="Layer 1"
     inkscape:groupmode="layer"
     id="layer1"
     transform="translate(-50.375345,-157.48306)"><path
       style="fill:#004e9b;fill-opacity:1;stroke-width:0.264583"
       d="m 70.481966,181.58983 c -1.145915,-0.36985 -2.471749,-1.12146 -3.623135,-2.05393 -1.521059,-1.23186 -2.56088,-3.49577 -3.430865,-7.46971 -0.817927,-3.73615 -1.330552,-4.68257 -2.990506,-5.52115 -2.8021,-1.41558 -5.834039,-0.16784 -6.846646,2.8176 -0.19274,0.56825 -0.305052,2.97922 -0.305052,6.54844 v 5.64906 h -1.181316 c -0.897143,0 -1.247203,-0.12311 -1.455208,-0.51177 -0.176779,-0.33032 -0.273893,-4.59883 -0.273893,-12.03854 v -11.52677 h 0.926042 c 1.697112,0 1.984375,0.59808 1.984375,4.13147 v 3.07314 l 0.624449,-0.40916 c 0.343447,-0.22503 1.316786,-0.61042 2.162975,-0.85641 2.942949,-0.85554 5.948669,-0.0123 8.091407,2.26996 l 1.22154,1.30109 1.144705,-1.08893 c 2.226808,-2.11831 5.656655,-3.17114 8.505106,-2.61075 2.000014,0.39348 3.325138,1.04138 4.73502,2.31513 l 1.061355,0.95887 -0.742548,0.60765 c -0.952995,0.77987 -1.843029,0.78233 -2.996237,0.008 -2.583376,-1.73398 -5.626585,-1.58724 -8.021415,0.38678 -1.529581,1.26081 -2.148252,2.66756 -2.143645,4.87428 0.0033,1.58142 0.126243,2.08363 0.809623,3.3073 1.867563,3.34406 5.533297,4.27606 8.904595,2.26397 1.796717,-1.07233 2.819927,-2.6319 3.867711,-5.89514 1.783564,-5.55477 4.092573,-8.00472 8.350063,-8.85975 2.708957,-0.54403 6.433232,0.58296 8.303667,2.51276 l 0.876967,0.9048 -0.788826,0.56169 c -1.058429,0.75367 -1.62496,0.70942 -3.163687,-0.2471 -2.446626,-1.52091 -5.627468,-1.32631 -7.72941,0.47288 -1.266032,1.08367 -2.097194,2.61724 -2.906647,5.363 -1.231135,4.17615 -3.072312,6.62008 -6.047713,8.02756 -1.490377,0.70501 -2.108198,0.84217 -4.010721,0.89041 -1.236927,0.0314 -2.547386,-0.0393 -2.91213,-0.15703 z m 17.464213,-0.013 c -1.609106,-0.49253 -4.7625,-2.50414 -4.7625,-3.03808 0,-0.0493 0.310864,-0.76863 0.690806,-1.59853 l 0.690809,-1.50892 0.491061,0.80748 c 1.109189,1.82392 4.177406,3.20423 6.255798,2.81432 1.156369,-0.21694 3.274476,-1.25209 3.760647,-1.83789 0.471766,-0.56845 1.858153,-0.51589 2.660915,0.10087 l 0.659411,0.50663 -0.546161,0.74426 c -0.772322,1.05245 -2.838866,2.38928 -4.418764,2.85846 -1.405578,0.41741 -4.347502,0.49866 -5.482022,0.1514 z"
       id="path2045" /></g></svg>
