<svg width="219" height="80" viewBox="0 0 219 80" fill="none" xmlns="http://www.w3.org/2000/svg">
<path fill-rule="evenodd" clip-rule="evenodd" d="M181.391 79.9143H182.458V72.4592H181.391V79.9143ZM175.179 79.0169C174.315 79.0169 173.604 78.7547 173.05 78.2265C172.496 77.7005 172.218 77.028 172.218 76.2098C172.218 75.3989 172.5 74.7227 173.063 74.185C173.628 73.6451 174.337 73.377 175.19 73.377C176.022 73.377 176.874 73.6254 177.747 74.1235V72.9763C176.789 72.5676 175.92 72.3625 175.137 72.3625C174.002 72.3625 173.047 72.7317 172.274 73.4715C171.499 74.2121 171.113 75.1256 171.113 76.2098C171.113 76.8925 171.281 77.5291 171.62 78.1152C171.957 78.7019 172.416 79.1627 172.996 79.4975C173.577 79.8322 174.282 80 175.114 80C176.139 80 177.044 79.7861 177.827 79.359V78.184C176.966 78.7408 176.082 79.0169 175.179 79.0169ZM166.438 79.9143H167.506V72.4592H166.438V79.9143ZM158.829 79.9143H163.252V78.9437H159.896V72.4592H158.829V79.9143ZM153.34 74.174C153.896 74.7139 154.173 75.3769 154.173 76.1673C154.173 76.9782 153.896 77.6573 153.34 78.2016C152.784 78.7451 152.089 79.0169 151.258 79.0169C150.43 79.0169 149.74 78.7503 149.19 78.2162C148.638 77.683 148.362 77.0149 148.362 76.2098C148.362 75.3798 148.636 74.6993 149.187 74.1667C149.736 73.632 150.437 73.3661 151.29 73.3661C152.099 73.3661 152.784 73.6349 153.34 74.174ZM148.388 73.4459C147.635 74.1755 147.258 75.0971 147.258 76.2098C147.258 77.2954 147.632 78.1979 148.38 78.9188C149.13 79.6396 150.065 80 151.189 80C152.365 80 153.34 79.6396 154.113 78.9188C154.887 78.1979 155.274 77.2874 155.274 76.1886C155.274 75.0897 154.892 74.1755 154.124 73.4459C153.358 72.7163 152.4 72.3515 151.248 72.3515C150.096 72.3515 149.141 72.7163 148.388 73.4459ZM143.169 78.0822C143.169 78.3628 143.06 78.595 142.836 78.7818C142.614 78.9671 142.335 79.0609 142.001 79.0609C141.244 79.0609 140.576 78.6946 140 77.965V79.3195C140.605 79.7736 141.275 80 142.012 80C142.653 80 143.173 79.8132 143.573 79.4389C143.973 79.0653 144.173 78.5803 144.173 77.9826C144.173 77.1431 143.718 76.4508 142.809 75.908L141.995 75.426C141.628 75.2113 141.363 75.007 141.198 74.8121C141.033 74.6158 140.95 74.4077 140.95 74.1836C140.95 73.9316 141.061 73.7265 141.286 73.5653C141.511 73.4034 141.795 73.3228 142.145 73.3228C142.765 73.3228 143.343 73.5814 143.88 74.0971V72.887C143.361 72.5375 142.789 72.3625 142.167 72.3625C141.515 72.3625 140.986 72.5463 140.579 72.9126C140.172 73.2789 139.969 73.755 139.969 74.3411C139.969 74.7337 140.075 75.0802 140.291 75.3798C140.507 75.6809 140.867 75.9864 141.377 76.297L142.187 76.79C142.842 77.1973 143.169 77.6287 143.169 78.0822ZM200.505 74.174C201.061 74.7139 201.339 75.3769 201.339 76.168C201.339 76.979 201.061 77.6573 200.505 78.2016C199.949 78.7459 199.255 79.0169 198.424 79.0169C197.596 79.0169 196.905 78.7503 196.354 78.2162C195.803 77.683 195.529 77.0149 195.529 76.2098C195.529 75.3806 195.803 74.6993 196.352 74.1667C196.901 73.632 197.602 73.3661 198.455 73.3661C199.266 73.3661 199.949 73.6349 200.505 74.174ZM195.554 73.4459C194.8 74.1741 194.424 75.0971 194.424 76.2098C194.424 77.2954 194.797 78.1979 195.547 78.9188C196.294 79.6396 197.231 80 198.354 80C199.53 80 200.505 79.6396 201.279 78.9188C202.053 78.1979 202.44 77.2874 202.44 76.1886C202.44 75.0897 202.057 74.1741 201.29 73.4459C200.524 72.7163 199.564 72.3515 198.413 72.3515C197.261 72.3515 196.308 72.7163 195.554 73.4459ZM185.649 73.3975H188.205V79.9143H189.276V73.3975H191.877V72.4482H185.649V73.3975ZM217.384 78.781C217.605 78.5957 217.717 78.362 217.717 78.0814C217.717 77.628 217.389 77.198 216.735 76.7907L215.923 76.2977C215.414 75.9871 215.052 75.6809 214.837 75.3798C214.621 75.0794 214.515 74.733 214.515 74.3425C214.515 73.755 214.718 73.2781 215.125 72.9126C215.534 72.5456 216.063 72.3617 216.714 72.3617C217.335 72.3617 217.906 72.5368 218.426 72.8869V74.0978C217.89 73.5807 217.311 73.3235 216.691 73.3235C216.343 73.3235 216.057 73.4034 215.832 73.5645C215.609 73.7264 215.496 73.9323 215.496 74.1843C215.496 74.407 215.579 74.6165 215.745 74.8113C215.909 75.0062 216.174 75.2106 216.54 75.4252L217.356 75.9072C218.265 76.45 218.721 77.1423 218.721 77.9818C218.721 78.5803 218.52 79.066 218.119 79.4381C217.72 79.8124 217.199 79.9992 216.559 79.9992C215.822 79.9992 215.151 79.7729 214.545 79.3209V77.9657C215.123 78.6953 215.79 79.0601 216.548 79.0601C216.883 79.0601 217.161 78.9663 217.384 78.781ZM209.07 73.8854C208.947 73.6957 208.772 73.5616 208.545 73.4832C208.319 73.4048 207.944 73.3653 207.422 73.3653H207.101V75.719H207.506C208.048 75.719 208.418 75.6735 208.619 75.5805C208.821 75.4882 208.977 75.3476 209.089 75.1615C209.202 74.9747 209.257 74.7615 209.257 74.5227C209.257 74.2898 209.195 74.0751 209.07 73.8854ZM207.101 76.6691V79.915H206.033V72.4584H207.901C208.655 72.4584 209.254 72.6445 209.697 73.0188C210.141 73.3924 210.363 73.8978 210.363 74.5337C210.363 74.9681 210.253 75.3439 210.036 75.6604C209.819 75.9768 209.509 76.2134 209.103 76.3702C209.341 76.527 209.573 76.7416 209.801 77.0112C210.029 77.2807 210.35 77.7532 210.761 78.4257C211.023 78.8491 211.231 79.1671 211.387 79.381L211.782 79.915H210.511L210.185 79.4234C210.177 79.4053 210.154 79.3758 210.123 79.3348L210.122 79.3333L209.914 79.0389L209.584 78.4931L209.227 77.9107C209.007 77.6045 208.805 77.3621 208.621 77.1797C208.438 76.9987 208.273 76.8698 208.125 76.7892C207.975 76.7094 207.728 76.6691 207.378 76.6691H207.101Z" fill="#5A6066"/>
<path fill-rule="evenodd" clip-rule="evenodd" d="M159.164 17.932C159.948 18.6924 160.341 19.6301 160.341 20.7443C160.341 21.887 159.948 22.843 159.164 23.61C158.38 24.3792 157.401 24.7623 156.229 24.7623C155.06 24.7623 154.088 24.3865 153.31 23.6342C152.533 22.8804 152.145 21.9383 152.145 20.8043C152.145 19.6345 152.532 18.6741 153.307 17.9218C154.08 17.168 155.069 16.7922 156.273 16.7922C157.416 16.7922 158.38 17.1724 159.164 17.932ZM152.181 16.9057C151.118 17.9335 150.587 19.233 150.587 20.8043C150.587 22.3346 151.115 23.6071 152.17 24.6231C153.225 25.6391 154.546 26.1475 156.131 26.1475C157.791 26.1475 159.164 25.6391 160.256 24.6231C161.346 23.6071 161.892 22.3244 161.892 20.7728C161.892 19.2228 161.35 17.9335 160.271 16.9057C159.19 15.8758 157.837 15.3615 156.213 15.3615C154.589 15.3615 153.245 15.8758 152.181 16.9057ZM146.999 20.0579H141.09V15.5124H139.585V26.0267H141.09V21.4512H146.999V26.0267H148.505V15.5124H146.999V20.0579ZM183.731 22.7602L180.8 15.5131H179.377L176.461 22.7602L173.563 15.5131H172.045L176.285 26.0713H176.607L180.081 17.5225L183.518 26.0713H183.848L188.101 15.5131H186.599L183.731 22.7602ZM167.635 16.957C167.955 17.0676 168.2 17.2573 168.377 17.5254C168.551 17.7935 168.64 18.0939 168.64 18.4257C168.64 18.762 168.561 19.0601 168.402 19.3246C168.245 19.5883 168.024 19.7861 167.74 19.915C167.457 20.0469 166.934 20.1113 166.17 20.1113H165.6V16.7914H166.05C166.789 16.7914 167.317 16.8471 167.635 16.957ZM165.6 26.0274V21.4504H165.992C166.483 21.4504 166.835 21.5076 167.043 21.6189C167.25 21.7317 167.484 21.9156 167.744 22.1727C168.001 22.4276 168.286 22.7705 168.597 23.2034L169.1 24.0239L169.566 24.7916L169.86 25.2062C169.906 25.2663 169.936 25.308 169.951 25.3336L170.41 26.0274H172.201L171.644 25.2736C171.422 24.974 171.128 24.5242 170.763 23.9279C170.179 22.9792 169.729 22.3141 169.407 21.9324C169.087 21.5515 168.758 21.2497 168.422 21.0292C168.994 20.808 169.433 20.4747 169.738 20.0285C170.044 19.5817 170.198 19.0528 170.198 18.4411C170.198 17.5423 169.886 16.8295 169.26 16.3028C168.636 15.7754 167.791 15.5131 166.728 15.5131H164.094V26.0274H165.6ZM196.201 23.6481C196.983 24.3916 197.984 24.7623 199.204 24.7623C200.478 24.7623 201.722 24.3711 202.937 23.588V25.2436C201.833 25.8465 200.557 26.1483 199.113 26.1483C197.939 26.1483 196.944 25.9117 196.125 25.4392C195.308 24.9689 194.661 24.3191 194.184 23.4899C193.707 22.6621 193.469 21.7669 193.469 20.8029C193.469 19.2733 194.014 17.9855 195.106 16.9423C196.196 15.8992 197.542 15.3769 199.144 15.3769C200.247 15.3769 201.475 15.6648 202.824 16.2428V17.8602C201.595 17.1577 200.393 16.8061 199.219 16.8061C198.014 16.8061 197.015 17.1863 196.219 17.9474C195.424 18.7078 195.026 19.6586 195.026 20.8029C195.026 21.9581 195.418 22.9067 196.201 23.6481ZM191.385 26.0274H189.882V15.5131H191.385V26.0274ZM212.68 20.0586H206.771V15.5131H205.267V26.0274H206.771V21.4519H212.68V26.0274H214.186V15.5131H212.68V20.0586ZM141.997 42.6672C142.801 43.41 143.826 43.7814 145.076 43.7814C146.383 43.7814 147.659 43.3909 148.903 42.6071V44.2634C147.77 44.8656 146.465 45.1674 144.984 45.1674C143.78 45.1674 142.759 44.93 141.921 44.4597C141.082 43.988 140.419 43.3382 139.93 42.5104C139.442 41.6812 139.198 40.7853 139.198 39.822C139.198 38.2917 139.758 37.0061 140.875 35.9607C141.994 34.9176 143.374 34.396 145.014 34.396C146.146 34.396 147.404 34.6839 148.787 35.2611V36.8793C147.526 36.1768 146.295 35.8267 145.091 35.8267C143.856 35.8267 142.833 36.2069 142.017 36.9665C141.203 37.7262 140.795 38.6777 140.795 39.822C140.795 40.9772 141.196 41.9258 141.997 42.6672ZM171.516 39.0777H165.607V34.5323H164.102V45.0465H165.607V40.471H171.516V45.0465H173.02V34.5323H171.516V39.0777ZM159.184 36.9519C159.969 37.7115 160.362 38.6492 160.362 39.7619C160.362 40.9062 159.969 41.8621 159.184 42.6299C158.4 43.3976 157.42 43.7814 156.248 43.7814C155.08 43.7814 154.108 43.4042 153.329 42.6526C152.554 41.9002 152.164 40.956 152.164 39.822C152.164 38.6543 152.552 37.6918 153.327 36.9394C154.1 36.1871 155.089 35.8106 156.292 35.8106C157.435 35.8106 158.4 36.1915 159.184 36.9519ZM152.202 35.9234C151.138 36.9534 150.607 38.2529 150.607 39.822C150.607 41.353 151.135 42.6269 152.19 43.643C153.245 44.659 154.566 45.1674 156.15 45.1674C157.809 45.1674 159.184 44.659 160.275 43.643C161.365 42.6269 161.911 41.3435 161.911 39.792C161.911 38.2426 161.372 36.9534 160.291 35.9234C159.21 34.8949 157.857 34.3814 156.233 34.3814C154.608 34.3814 153.265 34.8949 152.202 35.9234ZM185.601 34.5308L192.691 42.6987V34.5308H194.121V45.0458H192.827L185.797 36.9475V45.0458H184.383V34.5308H185.601ZM181.717 45.0304H175.612V34.5308H181.574V35.8714H177.117V39.0784H181.423V40.4249H177.117V43.692H181.717V45.0304ZM145.076 62.8005C143.826 62.8005 142.801 62.4291 141.997 61.6856C141.196 60.9442 140.795 59.9963 140.795 58.8411C140.795 57.6968 141.203 56.7453 142.017 55.9856C142.833 55.2238 143.856 54.8458 145.091 54.8458C146.295 54.8458 147.526 55.1952 148.787 55.8977V54.2802C147.404 53.703 146.146 53.4144 145.014 53.4144C143.374 53.4144 141.994 53.9359 140.875 54.9798C139.758 56.0244 139.198 57.3108 139.198 58.8411C139.198 59.8044 139.442 60.7003 139.93 61.5281C140.419 62.3566 141.082 63.0049 141.921 63.4774C142.759 63.9491 143.78 64.1857 144.984 64.1857C146.465 64.1857 147.77 63.8839 148.903 63.2825V61.6255C147.659 62.41 146.383 62.8005 145.076 62.8005ZM172.009 60.2256H169.985V58.8873H173.515V63.3426C172.22 63.9052 170.936 64.1858 169.661 64.1858C167.92 64.1858 166.529 63.6767 165.488 62.6613C164.446 61.6453 163.927 60.3919 163.927 58.9026C163.927 57.3313 164.465 56.0245 165.545 54.9806C166.623 53.936 167.975 53.4137 169.602 53.4137C170.193 53.4137 170.755 53.4789 171.288 53.6071C171.818 53.7338 172.491 53.9689 173.304 54.3096V55.845C172.05 55.1183 170.805 54.755 169.571 54.755C168.421 54.755 167.453 55.1454 166.665 55.9292C165.878 56.7116 165.485 57.672 165.485 58.8103C165.485 60.0059 165.878 60.9816 166.665 61.7383C167.453 62.4965 168.467 62.8752 169.706 62.8752C170.309 62.8752 171.028 62.7383 171.867 62.4606L172.009 62.4174V60.2256ZM160.361 58.7803C160.361 57.6676 159.969 56.7299 159.183 55.9703C158.399 55.2106 157.437 54.8297 156.293 54.8297C155.088 54.8297 154.102 55.2055 153.327 55.9593C152.551 56.7116 152.164 57.672 152.164 58.8426C152.164 59.9744 152.553 60.9186 153.331 61.6724C154.107 62.424 155.08 62.7998 156.248 62.7998C157.421 62.7998 158.399 62.4174 159.183 61.6497C159.969 60.8805 160.361 59.9245 160.361 58.7803ZM150.607 58.8426C150.607 57.2713 151.137 55.9717 152.201 54.941C153.264 53.9133 154.608 53.399 156.233 53.399C157.857 53.399 159.209 53.9133 160.29 54.941C161.371 55.9717 161.911 57.2603 161.911 58.8103C161.911 60.3619 161.365 61.6453 160.275 62.6613C159.185 63.6767 157.808 64.1858 156.15 64.1858C154.566 64.1858 153.245 63.6767 152.19 62.6613C151.134 61.6453 150.607 60.3714 150.607 58.8426ZM187.558 64.0649H193.798V62.6936H189.064V53.5499H187.558V64.0649ZM183.488 58.0954H177.58V53.5499H176.074V64.0649H177.58V59.4887H183.488V64.0649H184.993V53.5499H183.488V58.0954ZM208.336 53.5492L215.427 61.7163V53.5492H216.857V64.0642H215.562L208.532 55.9666V64.0642H207.118V53.5492H208.336ZM200.077 55.8003L198.504 59.6095H201.774L200.077 55.8003ZM196.593 64.0642H195.045L199.563 53.4906H200.621L205.334 64.0642H203.795L202.393 60.9494H197.908L196.593 64.0642Z" fill="#005EAB"/>
<path d="M108.34 22.9199C112.797 22.9243 116.607 24.4847 119.568 26.9409C119.577 26.9467 119.588 26.9497 119.592 26.9511C121.241 28.1305 122.922 28.5913 124.375 27.743C125.311 27.1877 127.752 25.4509 128.694 24.7784C123.217 17.7394 114.876 15.0355 108.1 15.0355C96.2589 15.0355 85.9856 22.4855 81.824 37.6829C81.5134 38.74 79.3773 46.8237 75.6787 51.4578C72.6643 55.1425 67.2097 57.9738 61.7383 57.9642H61.69C55.6216 57.9401 51.5398 55.3835 48.7928 51.8541C46.064 48.3291 44.7974 43.7558 44.7945 40.0439C44.7945 27.7137 56.116 22.9199 62.2116 22.9199C66.1278 22.9199 70.0623 24.4473 73.2283 26.957C73.2422 26.968 73.2606 26.9797 73.2789 26.9936C74.9234 28.1694 76.6105 28.6279 78.0565 27.7804C79.0352 27.2046 81.6643 25.3293 82.495 24.7352C77.039 17.7379 68.8067 15.0355 62.0592 15.0355C54.678 15.0355 45.0209 19.3129 40.5194 26.2428C39.5436 24.1697 38.2895 22.413 36.8251 20.9823C32.424 16.5512 27.0874 14.9967 21.4797 14.9967C15.8728 14.9967 11.3259 16.9189 8.4741 19.173V5.69995C8.36715 1.53469 6.52992 0.128928 3.35726 0H0V59.6564C0.109882 63.8869 1.99253 65.2721 5.23332 65.3769H8.4741V38.0917C8.4741 37.9437 8.46971 37.8214 8.46971 37.6998C8.4741 32.2269 10.1978 28.5356 12.3507 26.4552C15.1674 23.6913 19.1561 22.8818 21.3728 22.8818C23.5858 22.8818 27.6566 23.684 30.4791 26.4508C32.0621 27.984 33.41 30.3736 34.0481 33.7089C34.0634 33.769 36.2655 43.7067 36.2655 43.7067C37.0735 47.7796 37.8866 49.9341 38.351 50.9897C42.3778 60.1311 51.5779 65.993 61.4475 65.993C71.3376 65.9717 78.6675 59.9604 79.9143 58.773C82.8928 56.042 84.9073 52.7588 86.1908 50.1516C88.1474 46.5065 90.4454 37.861 90.4454 37.861C93.8884 27.0083 100.793 22.9529 108.34 22.9199ZM125.623 51.8497C124.184 51.0065 122.272 51.331 120.887 52.5624C117.029 56.3424 111.998 58.0749 108.39 58.0683C102.56 58.0683 95.9058 54.848 92.7536 49.0316L92.1024 47.8529C91.3603 49.9963 90.0234 53.4444 88.2514 56.305L88.1276 56.6127C92.9903 62.3251 101.108 65.9431 108.175 65.9556C115.216 65.9541 124.386 62.8584 129.804 54.6597C129.109 54.1711 126.624 52.4386 125.623 51.8497Z" fill="#005EAB"/>
</svg>
